# xmcd
#
# Track frame offsets: 
#        150
#        21842
#        38065
#        61250
#
# Disc length: 1200 seconds
#
# Revision: 0
# Processed by: cddbd v1.5.1PL0 Copyright (c) Steve Scherf et al.
# Submitted via: ExactAudioCopy v0.90b2
#
DISCID=2904ae04
DTITLE=The Mavericks - 4 Songs
DYEAR=1900
DGENRE=Country
TTITLE0=From Hell To Paradise
TTITLE1=All That Heaven Will Allow
TTITLE2=I Should Have Been True
TTITLE3=Matchbox
EXTD=
EXTT0=
EXTT1=
EXTT2=
EXTT3=
PLAYORDER=
